<?xml version="1.0" encoding="utf-8"?>
<!-- Generator: Adobe Illustrator 16.0.0, SVG Export Plug-In . SVG Version: 6.00 Build 0)  -->
<!DOCTYPE svg PUBLIC "-//W3C//DTD SVG 1.1//EN" "http://www.w3.org/Graphics/SVG/1.1/DTD/svg11.dtd">
<svg version="1.1" id="Layer_1" xmlns="http://www.w3.org/2000/svg" xmlns:xlink="http://www.w3.org/1999/xlink" x="0px" y="0px"
	 width="219.292px" height="219.285px" viewBox="0 0 219.292 219.285" enable-background="new 0 0 219.292 219.285"
	 xml:space="preserve">
<g>
	<path fill="#6D6E71" d="M44.513,219.285C19.967,219.285,0,199.315,0,174.771L0.002,44.513C0.002,19.969,19.973,0,44.516,0h130.255
		c24.546,0,44.518,19.967,44.518,44.512l0.004,130.26c0,24.544-19.971,44.514-44.517,44.514H44.513z"/>
	<path fill="#FFFFFF" d="M44.513,213.724c-21.478,0-38.948-17.475-38.948-38.952L5.566,44.513c0-21.477,17.472-38.949,38.949-38.949
		l130.255-0.002c21.479,0,38.956,17.473,38.956,38.95l0.001,130.26c0,21.478-17.474,38.952-38.952,38.952H44.513z"/>
	<path fill="#3B5EAB" d="M34.457,80.616l-9.985-7.09l-2.265,2.265L20.448,75.3c-4.674-15.95,6.562-26.54,6.562-26.54
		s10.595-11.244,26.535-6.559l0.482,1.766l-2.256,2.257l7.094,9.981c0,0,9.02-0.323,13.85,4.508l0.965-0.967
		c0,0,0.61,0.368,1.624,1.052l61.28-49.671H44.516c-18.36,0-33.385,15.023-33.385,33.384l-0.001,68.308l25.881-20.979
		C34.244,86.947,34.457,80.616,34.457,80.616z"/>
	<path fill="#313071" d="M178.393,163.52c0-17.386,12.972-31.74,29.771-33.935l-0.005-85.073c0-18.363-15.022-33.383-33.388-33.383
		h-14.519L96.381,80.813c1.77,2.421,2.585,3.899,2.585,3.899L97.6,86.079c0,0,4.186,7.263,3.95,12.65l19.881,13.451
		c0,0,0.242,0.89-1.047,3.626l12.403,17.723l6.368-1.539l16.659,26.334l0.652,2.575l-17.323,17.32l-2.578-0.648l-26.321-16.659
		l1.519-6.363l-17.709-12.408c-2.743,1.289-3.637,1.053-3.637,1.053l-13.428-19.897c-5.407,0.243-12.653-3.948-12.653-3.948
		l-1.376,1.373c0,0-0.736-0.406-2.003-1.254l-49.83,54.368v0.937c0,18.361,15.021,33.385,33.386,33.385h130.263
		c10.479,0,19.86-4.895,25.993-12.504C187.706,190.826,178.393,178.262,178.393,163.52z"/>
	<g>
		<path fill="#FFFFFF" d="M62.96,120.721l1.376-1.373c0,0,7.246,4.191,12.653,3.948l13.428,19.897c0,0,0.894,0.236,3.637-1.053
			l17.709,12.408l-1.519,6.363l26.321,16.659l2.578,0.648l17.323-17.32l-0.652-2.575l-16.659-26.334l-6.368,1.539l-12.403-17.723
			c1.289-2.736,1.047-3.626,1.047-3.626L101.55,98.729c0.235-5.387-3.95-12.65-3.95-12.65l1.366-1.368c0,0-0.815-1.478-2.585-3.899
			l63.871-69.684h-23.668L75.304,60.8c-1.014-0.684-1.624-1.052-1.624-1.052l-0.965,0.967c-4.83-4.831-13.85-4.508-13.85-4.508
			l-7.094-9.981l2.256-2.257l-0.482-1.766C37.604,37.517,27.01,48.76,27.01,48.76S15.774,59.35,20.448,75.3l1.759,0.491l2.265-2.265
			l9.985,7.09c0,0-0.213,6.332,2.554,11.227L11.13,112.821l-0.003,61.014l49.83-54.368C62.224,120.314,62.96,120.721,62.96,120.721z
			"/>
		<path fill="#FFFFFF" d="M208.163,129.585c-16.799,2.194-29.771,16.549-29.771,33.935c0,14.742,9.313,27.307,22.376,32.133
			c4.616-5.73,7.395-12.993,7.395-20.881V129.585z"/>
	</g>
</g>
</svg>
